<svg width="22" height="22" viewBox="0 0 22 22" fill="none" xmlns="http://www.w3.org/2000/svg">
<path d="M14.6804 13.1798C14.6804 12.8865 14.5567 12.7252 14.3651 12.6097C14.1726 12.4997 13.9398 12.4859 13.6226 12.4859H12.2082V15.0709H12.8269V14.1295H13.4869C13.7069 14.1295 13.8444 14.1515 13.9251 14.2441C14.0351 14.3632 14.0204 14.5924 14.0204 14.7483V15.0691H14.6254V14.5603C14.6236 14.3312 14.6098 14.2157 14.5264 14.0873C14.4471 13.9895 14.3425 13.9153 14.2239 13.8728L14.2423 13.8655C14.3762 13.8092 14.49 13.7137 14.5685 13.5914C14.6471 13.4692 14.6867 13.326 14.6823 13.1808L14.6804 13.1798ZM13.8829 13.5529L13.8572 13.5511C13.7747 13.5997 13.6785 13.6042 13.5548 13.6042H12.8123V13.0268H13.5676C13.6776 13.0268 13.7876 13.0267 13.8701 13.0726C13.9136 13.0936 13.9498 13.127 13.9743 13.1686C13.9988 13.2102 14.0104 13.2581 14.0076 13.3063C14.0076 13.4163 13.9663 13.5034 13.8848 13.5538L13.8829 13.5529ZM18.6056 14.5173H17.4167V15.0673H18.612C19.2317 15.0673 19.5745 14.8124 19.5745 14.2569C19.5745 14.0003 19.514 13.8463 19.4031 13.7234C19.2628 13.6015 19.0438 13.5465 18.7339 13.5337L18.3893 13.5199C18.2939 13.5199 18.2243 13.5199 18.1555 13.4924C18.1146 13.4799 18.0789 13.4543 18.0541 13.4195C18.0292 13.3847 18.0165 13.3427 18.018 13.2999C18.018 13.2174 18.0336 13.1478 18.1005 13.1074C18.1766 13.0656 18.2632 13.0465 18.3498 13.0524H19.4773V12.5006H18.2398C17.5945 12.5006 17.3617 12.9012 17.3617 13.2706C17.3617 14.0956 18.073 14.0543 18.6514 14.0681C18.7468 14.0681 18.8164 14.0818 18.8577 14.1231C18.8998 14.1506 18.9328 14.2203 18.9328 14.2881C18.9328 14.3587 18.9007 14.4256 18.8595 14.4531C18.8045 14.5017 18.722 14.5173 18.6056 14.5173V14.5173ZM0 0V9.25467L0.7425 7.535H2.34667L2.55292 7.96033V7.535H4.42567L4.83817 8.47L5.23875 7.54142H11.1989C11.4693 7.54142 11.7122 7.59367 11.8919 7.75775V7.54692H13.53V7.75775C13.8114 7.60192 14.1588 7.54692 14.5567 7.54692H16.9455L17.1655 7.97408V7.54692H18.9237L19.1565 7.97317V7.546H20.8597V11.165H19.1308L18.8008 10.615V11.1513H16.6439L16.4092 10.5738H15.8748L15.6273 11.1366H14.5154C14.0754 11.1366 13.7454 11.0413 13.5254 10.9166V11.1366H10.8763V10.3263C10.8763 10.2163 10.8488 10.2163 10.78 10.2025H10.6837V11.1522H5.56142V10.7122L5.36892 11.1522H4.29917L4.114 10.7122V11.1384H2.04875L1.81408 10.5664H1.28333L1.04867 11.1384H0V22H21.8038V15.4843C21.5563 15.6081 21.2419 15.6493 20.9119 15.6493H19.3325V15.4156C19.14 15.5668 18.81 15.6493 18.4947 15.6493H13.4842V14.8243C13.4842 14.7143 13.4677 14.7143 13.3742 14.7143H13.3054V15.6512H11.6554V14.674C11.3823 14.7987 11.066 14.8115 10.8047 14.7987H10.6086V15.6374H8.61025L8.11525 15.0718L7.59275 15.6218H4.34683V12.0193H7.656L8.13083 12.5712L8.63867 12.0212H10.8497C11.1063 12.0212 11.528 12.0487 11.7132 12.2274V12.0074H13.7088C13.8939 12.0074 14.2991 12.0487 14.5365 12.2137V11.9937H17.5294V12.2137C17.6788 12.0633 17.9951 11.9937 18.2655 11.9937H19.998V12.2137C20.1758 12.0762 20.4233 11.9937 20.768 11.9937H21.846V0H0ZM19.393 13.7088C19.3967 13.7133 19.3985 13.7198 19.4022 13.7234C19.4113 13.7326 19.4242 13.7326 19.4315 13.7418L19.393 13.7097V13.7088ZM21.8423 11.9918H21.9019V12.5006H21.8423V11.9918ZM21.8763 13.7775V13.7729C21.8488 13.75 21.8341 13.7289 21.8075 13.7088C21.67 13.5685 21.45 13.5117 21.1072 13.5025L20.7772 13.4915C20.6937 13.4952 20.6102 13.4859 20.5297 13.464C20.4888 13.4515 20.4531 13.4259 20.4283 13.3911C20.4034 13.3563 20.3907 13.3142 20.3922 13.2715C20.3922 13.189 20.4197 13.1248 20.4747 13.0845C20.5443 13.0433 20.6122 13.0387 20.7222 13.0387H21.8433V12.4997H20.6672C20.0347 12.4997 19.7872 12.9003 19.7872 13.2697C19.7872 14.0947 20.5022 14.0534 21.0797 14.0672C21.175 14.0672 21.2447 14.0809 21.285 14.1222C21.3272 14.1497 21.3547 14.2193 21.3547 14.2872C21.3547 14.3513 21.3235 14.4137 21.2722 14.4522C21.2309 14.5035 21.1475 14.5163 21.0247 14.5163H19.844V15.0709H21.0237C21.4087 15.0709 21.6966 14.9627 21.8487 14.7409H21.8763C21.9588 14.6181 22 14.4659 22 14.2615C22 14.0415 21.9588 13.904 21.8763 13.7793V13.7775ZM17.0473 13.024V12.4896H14.9985V15.0865H17.0473V14.5503H15.6081V14.0278H17.0133V13.4924H15.609V13.0249L17.0473 13.024ZM12.3842 8.05475H13.0121V10.6333H12.3851L12.3842 8.05475ZM12.0322 8.74775L12.0258 8.75325C12.0258 8.46542 11.9066 8.29492 11.7141 8.18125C11.5152 8.06667 11.2833 8.0575 10.9716 8.0575H9.56083V10.6425H10.1787V9.69467H10.8387C11.0587 9.69467 11.1962 9.72217 11.2851 9.80467C11.3969 9.92933 11.3832 10.1512 11.3832 10.307V10.6315H12.0038V10.1246C12.0038 9.89542 11.9891 9.78083 11.9029 9.65158C11.8227 9.55403 11.7185 9.47914 11.6004 9.43433C11.7581 9.37017 12.0331 9.15933 12.0331 8.74683L12.0322 8.74775ZM11.2484 9.11075H11.2347C11.1522 9.16025 11.0559 9.16208 10.9322 9.16208H10.175V8.591H10.9313C11.0413 8.591 11.1513 8.59467 11.2338 8.63683C11.3163 8.6735 11.3713 8.75417 11.3713 8.866C11.3713 8.97783 11.3282 9.06767 11.2484 9.10983V9.11075ZM14.5933 8.59192H15.1727V8.04192H14.5823C14.157 8.04192 13.8453 8.13817 13.6473 8.34442C13.3852 8.61942 13.3155 8.97692 13.3155 9.36192C13.3155 9.83125 13.4282 10.1255 13.6455 10.3464C13.8582 10.5646 14.2368 10.6306 14.5347 10.6306H15.2497L15.4834 10.0558H16.7576L16.9977 10.6306H18.2444V8.69642L19.4104 10.6306H20.2813L20.2831 10.6324V8.05383H19.6561V9.85325L18.5744 8.05658H17.6394V10.45L16.6008 8.01533H15.6805L14.8161 10.0503H14.5411C14.3788 10.0503 14.2093 10.0228 14.1121 9.9275C13.9975 9.79 13.9416 9.5975 13.9416 9.32067C13.9416 9.05942 14.0149 8.85317 14.1194 8.74317C14.2413 8.61942 14.3688 8.59192 14.5924 8.59192H14.5933ZM16.1223 8.49292L16.5477 9.51775V9.51958H15.6952L16.1223 8.49292ZM2.18167 10.0558L2.4145 10.6315H3.66667V8.61025L4.55767 10.6315H5.093L5.98492 8.613L5.99867 10.6315H6.63117V8.05567H5.60817L4.86842 9.801L4.06542 8.05475H3.06442V10.4958L2.02125 8.05475H1.10733L0.00916667 10.6306H0.669167L0.9075 10.0567H2.18167V10.0558ZM1.551 8.49292L1.97267 9.51775L1.96992 9.51958H1.13117L1.55008 8.49292H1.551ZM10.868 12.485H8.9045L8.12533 13.3311L7.36908 12.4859H4.9005V15.0709H7.33333L8.11708 14.2166L8.87242 15.0691H10.0659V14.2074H10.8341C11.3841 14.2074 11.9066 14.0571 11.9066 13.3412L11.9011 13.3384C11.9011 12.6234 11.3529 12.4859 10.8671 12.4859L10.868 12.485ZM7.03083 14.5319L7.018 14.5301H5.51833V14.0195H6.86583V13.4933H5.51833V13.0258H7.05833L7.73025 13.7775L7.02992 14.5328L7.03083 14.5319ZM9.45267 14.8344L8.5085 13.783L9.45267 12.7673V14.8326V14.8344ZM10.8763 13.6813H10.065V13.024H10.8763C11.0963 13.024 11.2613 13.1138 11.2613 13.3393C11.2613 13.5621 11.1238 13.6803 10.8763 13.6803V13.6813ZM9.13642 8.59192V8.05475H7.08583V10.6333H9.13642V10.1017H7.7V9.58467H9.09975V9.05667H7.7V8.59192" fill="#F9F9F9"/>
</svg>
