<svg width="17" height="17" viewBox="0 0 17 17" fill="none" xmlns="http://www.w3.org/2000/svg">
<path d="M4.89334 17H2.69468C2.22434 17 1.92543 16.6253 2.03168 16.1642L2.13722 15.6867H3.60418C4.07593 15.6867 4.55051 15.3092 4.65393 14.8495L5.40759 11.5968C5.51384 11.1378 5.98559 10.761 6.45593 10.761H7.08139C9.76526 10.761 11.8513 10.2092 13.3431 9.1035C14.8348 7.99779 15.5814 6.5535 15.5814 4.75787C15.5814 3.961 15.4433 3.30225 15.1649 2.78233C15.1649 2.771 15.1536 2.76037 15.1536 2.74975L15.2492 2.80287C15.7804 3.13225 16.1842 3.55654 16.4611 4.08779C16.7473 4.61904 16.8847 5.27779 16.8847 6.06475C16.8847 7.86038 16.1417 9.30467 14.6436 10.4104C13.1561 11.5047 11.0629 12.0565 8.38614 12.0565H7.74864C7.28114 12.0565 6.80372 12.4284 6.69747 12.8966L5.94309 16.1585C5.83755 16.6154 5.36934 16.9872 4.90184 16.9872L4.89334 17ZM2.99714 15.091H0.797761C0.328136 15.091 0.0299274 14.7163 0.134761 14.2552L3.2323 0.83725C3.33926 0.374708 3.80959 0 4.28134 0H8.86072C9.84884 0 10.7088 0.0694167 11.4447 0.204708C12.1778 0.338583 12.8047 0.572333 13.3459 0.905958C13.8672 1.23533 14.2823 1.66529 14.5479 2.19371C14.8235 2.72354 14.9616 3.38371 14.9616 4.17492C14.9616 5.97054 14.2171 7.41483 12.7204 8.50921C11.2329 9.61492 9.13909 10.1568 6.46159 10.1568H5.83614C5.36864 10.1568 4.89547 10.528 4.78922 10.9848L4.03768 14.2354C3.93214 14.693 3.45897 15.0655 2.9858 15.0655L2.99714 15.091V15.091ZM8.27139 2.788H7.55314C7.08139 2.788 6.60964 3.16271 6.5048 3.62242L5.84605 6.46992C5.7398 6.92892 6.0373 7.30504 6.5048 7.30504H7.04739C8.22605 7.30504 9.15114 7.06208 9.80989 6.58183C10.4679 6.09592 10.798 5.41025 10.798 4.51917C10.798 3.93125 10.5848 3.49562 10.1605 3.21583C9.73551 2.92967 9.09801 2.78729 8.25793 2.78729L8.27139 2.788V2.788Z" fill="#F9F9F9"/>
</svg>
