<svg width="30" height="30" viewBox="0 0 30 30" fill="none" xmlns="http://www.w3.org/2000/svg">
<g clip-path="url(#clip0)">
<path d="M21.8062 10.7787C21.1094 10.525 20.3729 10.3976 19.6312 10.4025C17.2312 10.4025 15.5375 11.6125 15.525 13.3462C15.51 14.6212 16.73 15.3387 17.6513 15.7662C18.5975 16.2037 18.9137 16.4787 18.9112 16.8725C18.905 17.4687 18.155 17.7387 17.4588 17.7387C16.5013 17.7387 15.9762 17.605 15.17 17.27L14.8713 17.1312L14.5325 19.1287C15.115 19.3725 16.165 19.5812 17.2512 19.5975C19.8025 19.5975 21.47 18.3962 21.49 16.5487C21.51 15.5325 20.8525 14.7612 19.4638 14.1262C18.6213 13.7137 18.0963 13.4375 18.0963 13.0187C18.0963 12.6487 18.545 12.2537 19.4825 12.2537C20.106 12.2388 20.7256 12.355 21.3013 12.595L21.5263 12.6962L21.865 10.7662L21.8062 10.7787V10.7787ZM28.035 10.5662H26.16C25.5762 10.5662 25.14 10.725 24.8837 11.305L21.2775 19.4725H23.8287L24.3388 18.135L27.4513 18.1375C27.5275 18.45 27.7513 19.4725 27.7513 19.4725H30L28.035 10.5662ZM12.075 10.4912H14.5037L12.985 19.4025H10.555L12.075 10.4887V10.4912ZM5.90125 15.4025L6.15375 16.64L8.53 10.5662H11.1038L7.2775 19.46H4.71L2.61 11.9275C2.57613 11.8033 2.49549 11.6972 2.385 11.6312C1.62972 11.2389 0.828567 10.942 0 10.7475L0.03125 10.56H3.945C4.475 10.58 4.9025 10.7475 5.04875 11.315L5.90125 15.4062V15.4025V15.4025ZM25.0362 16.3112L26.005 13.8187C25.9925 13.8437 26.205 13.3037 26.3275 12.9687L26.4937 13.7375L27.055 16.3087H25.0362V16.3112V16.3112Z" fill="#F9F9F9"/>
</g>
<defs>
<clipPath id="clip0">
<rect width="30" height="30" fill="white"/>
</clipPath>
</defs>
</svg>
